<svg viewBox="0 0 199.42 40" id="logo" xmlns="http://www.w3.org/2000/svg" style="color: #239a64; fill: #000;"><title>VoxDev logo</title><path d="M113.52 0h-11.75v39.52h11.75c12.84 0 20.82-7.57 20.82-19.76S126.36 0 113.52 0zm10.32 19.76c0 6.95-3.76 10.93-10.32 10.93h-1.65V8.83h1.65c6.56 0 10.33 3.98 10.33 10.93zM167.61 24.1c0-10.74-5.46-17.16-15.48-17.16-9.24 0-15.48 7.38-15.48 16.62S143 40 153.4 40c8.16 0 12.48-5.1 13.38-7l-6.6-5.1a8.12 8.12 0 0 1-6.6 3.36c-3.72 0-6.42-2.4-6.66-5.22h20.64c.05-.68.05-1.34.05-1.94zm-20.4-4.38a5 5 0 0 1 5.1-4.68 4.83 4.83 0 0 1 5.1 4.68zM183.04 28.6l5.94-20.87h10.44L188.8 39.22h-11.64L166.37 7.73h10.73l5.94 20.87z"/><path fill="none" d="M51.23 15.77c-4.14 0-7.08 3.18-7.08 7.8a8.08 8.08 0 0 0 1.6 5 102.47 102.47 0 0 0 11.91-1.43 8.5 8.5 0 0 0 .82-3.73c.01-4.59-3.17-7.64-7.25-7.64z"/><path fill="currentColor" d="M45.75 28.6a8.08 8.08 0 0 1-1.6-5c0-4.62 2.94-7.8 7.08-7.8s7.26 3.06 7.26 7.68a8.5 8.5 0 0 1-.82 3.73 92.81 92.81 0 0 0 10.8-2.62v-1.1c0-9.54-7.14-16.5-17.28-16.5-9.72 0-17.1 7.08-17.1 16.62a17.47 17.47 0 0 0 .77 5.18c3.51.07 7.14.04 10.89-.19zM87.42 8l-4.8 8.46L77.82 8H66.66L76 21.86A82.87 82.87 0 0 0 98.52 8zM39.18.4l.14-.4H28.23l-8.57 27-8.57-27H0l9.08 25.13a126.07 126.07 0 0 0 20 3.28z"/><path d="M14.28 39.52H25l4-11.11a126.07 126.07 0 0 1-20-3.28l5.13 14.19zM66.36 39.52H77.1l5.52-8.46 5.52 8.46h10.73l-10.74-16L98.57 8h-.05A82.87 82.87 0 0 1 76 21.86l1.14 1.7zM51.23 40c9.57 0 16.69-6.54 17.24-15.45a92.81 92.81 0 0 1-10.8 2.62 7 7 0 0 1-6.44 4 6.78 6.78 0 0 1-5.48-2.58c-3.75.23-7.38.26-10.85.15C37 35.47 43.15 40 51.23 40z"/></svg>
